
<svg version="1.1" id="Layer_1" xmlns="http://www.w3.org/2000/svg" xmlns:xlink="http://www.w3.org/1999/xlink" x="0px" y="0px"
	 width="100%" viewBox="0 0 1024 1024" enable-background="new 0 0 1024 1024" xml:space="preserve">
<path fill="#ffffff" opacity="1.000000" stroke="none" 
	d="
M365.327271,716.675171 
	C338.433075,688.615234 319.995819,656.257690 312.257416,618.384277 
	C307.079224,593.041016 307.718689,567.610718 312.750092,542.118469 
	C319.609070,507.366730 332.070221,474.991119 351.798126,445.585510 
	C368.298676,420.990479 387.965332,399.168304 410.190674,379.493103 
	C440.844971,352.356049 466.071442,320.994659 481.481506,282.572479 
	C487.751740,266.938904 491.101685,250.653595 489.561676,233.771240 
	C488.795044,225.366638 486.756378,217.077332 485.273193,208.739410 
	C484.954559,206.948257 484.080688,204.886703 485.694366,203.559082 
	C487.512299,202.063461 489.134521,203.997528 490.643036,204.772781 
	C522.376038,221.080399 543.483948,246.048370 550.998169,281.236176 
	C555.208252,300.951508 554.351257,320.902924 549.970642,340.656830 
	C542.801941,372.983398 527.093201,400.772888 505.272736,425.352448 
	C482.097015,451.458679 454.792023,473.221130 429.537079,497.138031 
	C410.634277,515.039368 393.649872,534.162598 382.218597,557.815063 
	C370.813904,581.412415 365.221619,606.226562 367.511688,632.346985 
	C370.718018,668.918518 386.440887,699.546509 413.427704,724.412964 
	C432.302429,741.804626 454.729065,752.770874 478.815552,760.831787 
	C484.008484,762.569763 489.046112,764.832886 494.014984,767.154419 
	C496.614563,768.368896 499.283630,769.889526 500.289429,773.699646 
	C492.392700,775.221436 485.040314,774.034973 477.770813,772.850586 
	C434.605377,765.817871 397.225159,747.102905 365.327271,716.675171 
z"/>
<path fill="#ffffff" opacity="1.000000" stroke="none" 
	d="
M634.300476,499.680298 
	C615.279907,474.611786 590.940552,457.070801 562.463074,445.110168 
	C557.847839,443.171783 556.738525,440.964600 558.636353,436.439575 
	C561.270264,430.159485 563.025024,423.481567 565.971924,417.367218 
	C575.658875,397.268250 578.447205,375.419983 582.664612,353.923584 
	C583.228210,351.050995 583.366455,348.087708 584.534668,345.368164 
	C587.462952,345.071320 589.056396,347.009613 590.780090,348.426880 
	C618.894226,371.542694 642.816223,398.446075 663.227783,428.545380 
	C681.844116,455.997284 697.023621,485.196259 707.178467,516.791199 
	C720.153198,557.159851 721.403198,597.626709 707.528076,638.267151 
	C699.187317,662.697266 687.549744,685.246887 670.617798,704.618286 
	C656.981384,720.219299 640.422729,732.741028 623.025696,744.010315 
	C606.411804,754.772278 588.404236,762.505981 569.462891,768.124756 
	C567.878296,768.594788 566.231384,768.874573 564.597168,769.144287 
	C564.163635,769.215820 563.669617,768.920959 563.000366,768.739258 
	C561.699219,764.397339 564.405823,761.924438 567.271301,759.566650 
	C576.037903,752.353455 585.768494,746.499512 595.114319,740.121216 
	C635.399780,712.627319 659.597046,674.794983 667.344238,626.825500 
	C671.861267,598.856506 667.788879,571.453979 658.165833,544.881104 
	C652.352661,528.828918 644.798706,513.675049 634.300476,499.680298 
z"/>
<path fill="#ffffff" opacity="1.000000" stroke="none" 
	d="
M515.934448,554.183350 
	C520.220642,538.908997 524.485107,524.049133 528.453491,509.110687 
	C529.340759,505.770447 530.698486,504.983917 534.041016,505.405487 
	C538.312927,505.944336 542.688843,505.633636 547.018372,505.746887 
	C552.549805,505.891541 552.793457,506.217072 551.280273,511.586792 
	C544.112183,537.024414 536.955688,562.465393 529.737976,587.888916 
	C519.658630,623.392029 509.475037,658.865723 499.498108,694.397461 
	C498.428253,698.207581 497.022369,699.853943 492.747498,699.481445 
	C487.304626,699.007263 481.851959,698.804016 475.746643,697.714478 
	C489.155396,649.800476 502.480591,602.184998 515.934448,554.183350 
z"/>
<path fill="#ffffff" opacity="1.000000" stroke="none" 
	d="
M422.966858,636.099670 
	C414.744629,630.392212 406.878021,624.800659 398.857544,619.439209 
	C395.946228,617.493103 394.637482,615.259094 394.612091,611.660828 
	C394.499084,595.626770 394.420868,595.654358 407.378662,586.326294 
	C425.472168,573.301208 443.521454,560.214661 461.625000,547.203552 
	C463.611847,545.775574 465.471191,544.018188 468.000732,543.554504 
	C469.838959,544.501709 469.255737,546.182556 469.303558,547.567261 
	C469.561859,555.044922 468.872223,562.551147 469.939209,570.004028 
	C470.399536,573.219543 468.347626,574.767822 466.106079,576.393311 
	C453.713684,585.379456 441.361694,594.421448 429.022644,603.480713 
	C427.860992,604.333618 426.328888,604.891724 425.792084,607.153076 
	C434.398682,613.516113 443.182465,620.022583 451.981171,626.508850 
	C455.329651,628.977295 458.506317,631.775757 462.126038,633.757507 
	C468.163086,637.062805 470.132751,641.740112 469.477570,648.481079 
	C468.875061,654.679993 469.349487,660.983704 469.349487,668.244019 
	C453.665802,657.375732 438.463715,646.841125 422.966858,636.099670 
z"/>
<path fill="#ffffff" opacity="1.000000" stroke="none" 
	d="
M597.117615,564.855713 
	C609.751770,573.564636 622.055359,582.126038 634.468994,590.524658 
	C637.208801,592.378296 638.660034,594.390503 638.409546,597.855591 
	C638.134216,601.663940 637.829163,605.637512 638.600647,609.316040 
	C639.846497,615.255737 637.272888,618.349243 632.663452,621.557983 
	C612.024231,635.925720 591.642822,650.663757 571.152710,665.246155 
	C569.564636,666.376343 568.145142,667.910583 565.033264,667.949585 
	C564.318420,662.634888 565.133667,657.247192 564.935730,651.904053 
	C564.640076,643.925842 567.891724,638.579285 574.367249,633.745667 
	C586.204956,624.909546 597.263550,615.029541 609.359070,604.994263 
	C603.681641,600.353088 598.582764,595.944946 593.232117,591.867188 
	C585.286377,585.811707 577.248962,579.866760 569.070923,574.130981 
	C565.916199,571.918457 564.360596,569.581726 564.550232,565.534546 
	C564.904297,557.979126 564.651978,550.395264 564.651978,542.823303 
	C565.112244,542.579468 565.572510,542.335632 566.032776,542.091858 
	C576.297363,549.611084 586.562012,557.130371 597.117615,564.855713 
z"/>
</svg>
